<svg version="1.1" id="Layer_1" xmlns="http://www.w3.org/2000/svg" xmlns:xlink="http://www.w3.org/1999/xlink" x="0px" y="0px"
	 width="100%" viewBox="0 0 746 334" enable-background="new 0 0 746 334" xml:space="preserve">
<path fill="#010100" opacity="1.000000" stroke="none" 
	d="
M582.000000,335.000000 
	C388.044769,335.000000 194.589523,335.000000 1.067142,335.000000 
	C1.067142,223.737213 1.067142,112.474380 1.067142,1.105774 
	C249.666641,1.105774 498.333313,1.105774 746.980713,1.105774 
	C746.980713,112.410515 746.980713,223.705261 746.980713,335.000000 
	C692.140991,335.000000 637.320496,335.000000 582.000000,335.000000 
M589.917114,265.984436 
	C589.917114,265.984436 589.969666,265.904053 589.344788,265.984772 
	C589.069824,266.298981 588.794861,266.613190 588.184509,267.005371 
	C587.971130,267.145569 587.873230,267.342987 587.346924,268.041473 
	C587.198608,268.709869 587.050293,269.378296 586.762939,270.277527 
	C586.762939,270.277527 586.908020,270.504639 586.311401,271.036316 
	C586.513123,272.726837 586.714844,274.417389 586.909607,276.006866 
	C586.909607,276.006866 586.811157,276.030823 586.785522,276.733002 
	C587.159973,277.527679 587.534485,278.322327 587.850708,279.051697 
	C587.850708,279.051697 587.795654,279.119659 587.916626,279.845795 
	C588.666504,280.379913 589.416382,280.914062 590.528320,282.031158 
	C596.173828,282.872131 601.819336,283.713074 608.260315,284.672516 
	C607.224060,277.730652 606.420776,272.349365 605.617493,266.968048 
	C604.418152,261.935486 600.072693,262.938171 595.269958,263.062744 
	C593.813904,263.685638 592.357788,264.308563 590.970337,264.973755 
	C590.970337,264.973755 590.968506,264.893219 590.419434,265.033386 
	C590.226868,265.330627 590.034302,265.627838 589.917114,265.984436 
M401.704071,76.558784 
	C401.559418,76.272675 401.349091,76.048019 401.076202,75.970184 
	C401.076202,75.970184 401.148529,75.924751 401.069855,75.221291 
	C398.714752,70.854057 396.359650,66.486824 394.004547,62.119587 
	C393.358093,62.369186 392.711639,62.618790 392.065186,62.868393 
	C392.330170,64.837868 392.203308,66.975464 392.958160,68.734734 
	C393.926758,70.992264 395.604126,72.945686 397.002686,75.767662 
	C396.258209,78.590836 395.680573,81.547394 391.597931,81.657700 
	C391.067688,81.605217 390.537476,81.552742 389.481415,81.178200 
	C389.281403,81.130882 389.081390,81.083565 388.442719,80.545380 
	C386.323120,78.728508 384.267853,76.826660 382.045898,75.145042 
	C381.353668,74.621147 380.210632,74.692963 379.273956,74.492058 
	C379.493683,75.320137 379.487579,76.324974 379.972931,76.945160 
	C381.883301,79.386047 383.948212,81.705971 386.260193,84.616013 
	C386.411804,84.758591 386.563446,84.901169 386.415955,85.736290 
	C386.886414,87.348068 387.356903,88.959854 387.734772,91.338036 
	C387.467804,94.776237 388.566589,96.928062 392.450317,97.282654 
	C395.947571,97.601944 399.397583,98.438698 403.402405,99.737373 
	C408.826202,99.833847 414.252106,100.062836 419.672974,99.976166 
	C422.831818,99.925659 425.982574,99.369713 429.967590,99.049294 
	C433.002472,98.425682 436.019928,97.406479 439.076324,97.271988 
	C443.564972,97.074478 444.841278,95.074722 445.074677,90.731438 
	C445.443939,83.859558 449.348633,78.488380 453.768188,73.357491 
	C451.597473,74.505119 450.090179,76.489578 448.104401,77.667389 
	C445.252106,79.359192 442.038361,81.458672 439.004242,81.419609 
	C437.362183,81.398483 435.772614,77.300255 434.703369,74.596786 
	C435.780151,72.626808 436.390503,69.996239 438.037231,68.833557 
	C440.880066,66.826378 440.236603,65.035545 438.645416,61.565536 
	C436.832214,63.633770 435.116272,64.983337 434.216522,66.748840 
	C432.544464,70.029839 431.348389,73.553391 430.000580,76.999268 
	C430.000580,76.999268 429.975647,76.953629 429.400574,77.184113 
	C428.562653,77.763229 427.724701,78.342346 426.967712,78.934288 
	C426.967712,78.934288 426.956787,78.853065 426.298096,78.809105 
	C425.887665,78.935295 425.477234,79.061485 424.362671,79.197556 
	C423.893524,79.191528 423.424408,79.185501 422.547272,78.876991 
	C422.380585,78.847229 422.213928,78.817459 421.585419,78.276711 
	C418.508453,74.406624 414.827606,70.804436 418.522003,65.149887 
	C419.081848,64.293022 417.612976,61.934464 416.759125,60.457436 
	C416.552490,60.100002 414.461670,60.192837 414.269379,60.584866 
	C413.670624,61.805580 412.985168,63.461678 413.364319,64.607880 
	C416.174713,73.103584 412.627655,78.588585 403.616760,78.463341 
	C403.073914,78.043571 402.531097,77.623802 402.001068,77.019119 
	C402.001068,77.019119 401.815948,77.009850 401.704071,76.558784 
M188.006317,276.989807 
	C188.006317,276.989807 188.076736,276.966400 188.043839,276.249390 
	C187.381699,274.794037 186.719543,273.338654 186.027771,271.385010 
	C186.027771,271.385010 185.687012,271.020294 185.622864,270.313599 
	C184.737549,268.008026 183.852234,265.702423 182.179352,263.130005 
	C180.747116,263.512939 178.485519,263.458679 178.016068,264.349182 
	C174.758377,270.528717 171.873138,276.904602 168.665161,283.644470 
	C172.321533,283.671936 175.168198,284.658569 176.505829,280.625275 
	C176.712982,280.000702 183.048874,279.975830 183.708908,281.202545 
	C185.703995,284.910522 187.906555,283.855957 191.243912,283.081421 
	C190.284500,281.133942 189.520020,279.582153 188.672028,277.572815 
	C188.574982,277.248718 188.365936,277.033264 188.006317,276.989807 
M439.954895,264.971008 
	C439.954895,264.971008 439.927002,264.895691 439.316589,265.254059 
	C437.519989,269.148193 435.723358,273.042358 433.326447,277.328247 
	C432.589996,279.262756 431.853546,281.197266 431.096649,283.185516 
	C436.254761,284.147583 435.835876,283.507690 439.016083,281.425903 
	C441.026978,280.109589 446.345093,280.015503 446.997864,281.170929 
	C448.974457,284.669617 451.119629,283.787842 453.786896,283.463959 
	C452.407166,279.405334 451.750366,275.363861 449.750916,272.160492 
	C447.571167,268.668152 448.183929,261.907806 440.398712,263.259827 
	C440.223999,263.830017 440.049286,264.400238 439.954895,264.971008 
M209.227081,277.664154 
	C207.501663,278.117401 205.776245,278.570618 203.464691,278.624664 
	C203.187744,275.744507 201.759491,272.224365 202.917206,270.141663 
	C204.459702,267.366760 207.929092,267.224609 211.154602,269.331787 
	C212.011032,269.891296 214.168869,268.458679 215.871292,267.893524 
	C211.481201,261.039032 203.887741,261.277740 197.508041,268.125031 
	C197.320129,268.412170 197.132217,268.699280 196.998962,269.000732 
	C196.998962,269.000732 196.973923,268.950043 196.294373,269.315704 
	C193.559662,274.797882 195.432526,280.019409 201.588776,283.488495 
	C202.643707,283.438477 203.698654,283.388458 205.484818,283.579834 
	C205.986038,283.505707 206.487274,283.431549 207.801147,283.726898 
	C216.069809,283.966827 216.088440,283.966461 215.924973,275.548767 
	C215.903564,274.446228 215.575317,273.349640 215.340942,271.533203 
	C214.902756,271.395966 214.464569,271.258728 213.271759,270.983887 
	C212.510223,271.036835 211.748688,271.089783 210.153473,271.036255 
	C209.669922,271.024261 209.064301,270.819427 208.724518,271.034515 
	C207.439346,271.848083 206.240417,272.797943 205.009232,273.696808 
	C206.097290,274.472839 207.237671,275.187134 208.253601,276.048279 
	C208.855835,276.558777 209.261703,277.300995 209.915405,277.830688 
	C209.915405,277.830688 209.783554,277.689941 209.227081,277.664154 
M295.213165,283.383850 
	C295.213165,283.383850 295.671692,283.451630 296.398407,283.787201 
	C298.789642,284.318085 300.136597,283.786377 300.054321,280.908203 
	C299.908325,275.802887 300.116760,270.686768 299.934692,265.583801 
	C299.905151,264.756287 298.627808,263.973267 297.212189,263.061249 
	C296.232147,263.930267 294.474487,264.742798 294.406494,265.678070 
	C294.110016,269.758545 294.304443,273.874634 294.088959,278.733521 
	C294.329559,280.206940 294.570190,281.680359 295.213165,283.383850 
M539.078918,263.013702 
	C534.143616,263.013702 529.208252,263.013702 522.738464,263.013702 
	C524.507812,265.362152 525.479980,267.736877 526.430420,267.728180 
	C530.781433,267.688538 530.594849,270.081970 530.185181,273.144287 
	C529.923279,275.102020 530.170166,277.123779 530.123962,279.115326 
	C530.043213,282.599609 531.392090,284.491943 535.648926,283.790863 
	C535.648926,283.790863 535.953247,283.417206 536.573425,283.244202 
	C536.661743,282.840302 536.750061,282.436401 536.952759,281.107391 
	C536.985046,276.775696 537.017334,272.444000 537.891846,268.042694 
	C538.708069,268.045166 539.693726,268.341797 540.305725,267.989502 
	C541.627563,267.228607 542.757629,266.134766 543.966187,265.177155 
	C542.646423,264.497650 541.326721,263.818146 539.078918,263.013702 
M387.695099,329.480164 
	C387.455963,323.318115 387.216827,317.156067 386.629639,310.228882 
	C385.210358,310.105957 383.791046,309.983032 382.181458,309.843658 
	C382.181458,316.832733 382.181458,323.352020 382.181458,330.126495 
	C383.999908,330.023682 385.470245,329.940582 387.695099,329.480164 
M552.740601,283.740814 
	C553.291321,276.966003 553.842102,270.191162 554.412964,263.168732 
	C551.924866,263.168732 550.471313,263.168732 548.264771,263.397339 
	C548.131409,268.903503 548.125610,274.416870 547.816284,279.913147 
	C547.633545,283.159546 549.019897,284.073547 552.740601,283.740814 
M435.122559,327.793976 
	C435.709167,328.563629 436.254211,329.957855 436.889221,330.000092 
	C440.600983,330.247223 444.339172,330.297699 448.055725,330.130859 
	C448.984070,330.089172 449.865509,329.003052 450.768524,328.396973 
	C449.973053,327.335724 449.379883,325.756012 448.330139,325.346466 
	C447.060089,324.850891 445.403687,325.345673 443.106384,325.068726 
	C442.464539,320.158478 441.822662,315.248230 441.178192,310.317902 
	C436.180725,310.047760 434.330261,312.509277 434.993561,317.538727 
	C435.404602,320.655579 435.247650,323.847351 435.122559,327.793976 
M408.056793,309.862579 
	C402.459106,309.862579 396.861389,309.862579 390.170044,309.862579 
	C391.339294,311.765808 392.168243,313.115112 393.859009,314.706421 
	C396.446533,314.489136 397.281525,315.712952 397.172058,318.228851 
	C397.003448,322.104248 397.127686,325.992340 397.127686,329.897858 
	C399.472046,329.897858 401.058472,329.897858 403.032532,329.897858 
	C403.032532,327.216217 403.032532,324.777191 403.032532,322.338135 
	C403.032532,319.936096 403.032532,317.534027 403.032532,314.998230 
	C405.222809,314.893311 406.871124,315.208405 408.113464,314.638458 
	C409.241486,314.120941 409.964783,312.665009 410.722595,311.526978 
	C410.771515,311.453491 409.584503,310.557068 408.056793,309.862579 
M228.587372,277.102631 
	C230.614883,276.724701 232.706924,276.540924 234.645844,275.896454 
	C235.817291,275.507080 236.751038,274.402557 237.791595,273.619415 
	C236.626114,272.806213 235.563721,271.650970 234.270615,271.261261 
	C232.401321,270.697876 230.364883,270.689117 228.399750,270.443756 
	C228.435669,269.800446 228.471573,269.157135 228.507477,268.513794 
	C231.474365,268.250549 234.441238,267.987274 237.827408,267.686798 
	C237.368881,265.686340 239.505493,262.594543 234.049194,263.015808 
	C230.132904,263.015808 226.216614,263.015808 221.962128,263.015808 
	C221.962128,266.936371 221.962128,270.222351 221.962128,273.508362 
	C221.962128,276.752930 221.962128,279.997467 221.962128,283.733551 
	C224.797333,283.590576 226.893326,283.484894 229.723099,283.625183 
	C230.483368,283.549408 231.243652,283.473663 232.797379,283.666504 
	C234.374451,283.666504 235.951523,283.666504 237.597687,283.666504 
	C237.597687,281.661041 237.597687,280.380890 237.597687,279.002533 
	C234.280731,278.633484 231.172409,278.287659 228.587372,277.102631 
M508.122437,263.068695 
	C507.411285,263.731384 506.100830,264.378143 506.082764,265.059204 
	C505.921692,271.124176 505.988953,277.195221 505.988953,283.880737 
	C510.429779,283.880737 514.197205,283.880737 518.698181,283.926819 
	C519.734558,282.715057 520.770935,281.503296 522.037659,280.022217 
	C512.420349,276.935242 512.420349,276.935242 512.695740,275.325836 
	C514.127441,275.533630 515.817749,276.313110 516.917114,275.807587 
	C518.394714,275.128174 519.416138,273.456696 520.633301,272.211060 
	C519.256226,271.798492 517.899414,271.288361 516.497009,270.998230 
	C514.771729,270.641357 513.008484,270.468079 511.261658,270.215424 
	C511.271332,269.690033 511.281006,269.164642 511.290710,268.639252 
	C514.399109,268.275848 517.507568,267.912476 521.901428,267.398804 
	C520.627197,265.568054 519.793762,264.370605 518.078125,263.028992 
	C515.401978,263.081940 512.725891,263.134888 509.507446,263.097595 
	C509.327484,263.132202 509.147552,263.166809 508.122437,263.068695 
M335.270020,310.483185 
	C330.753021,310.164673 326.236053,309.846130 321.537994,309.514832 
	C321.537994,316.832916 321.537994,323.241089 321.537994,329.715210 
	C324.156250,330.124390 326.564941,330.500793 329.657867,330.989288 
	C330.115906,330.943939 330.573914,330.898560 331.671631,330.961243 
	C332.099670,330.916168 332.527679,330.871094 333.644440,330.801422 
	C343.171478,325.460846 344.203857,316.198792 335.270020,310.483185 
M566.938354,281.135590 
	C566.938354,278.916443 566.938354,276.697296 566.938354,273.867828 
	C571.753235,277.195709 571.996094,285.243073 579.625549,283.552979 
	C579.625549,276.717285 579.625549,270.042328 579.625549,263.111816 
	C577.901794,263.610443 576.540588,264.004181 575.313965,264.358978 
	C574.975342,266.614075 574.672913,268.628357 574.370483,270.642670 
	C573.933228,270.810028 573.496033,270.977417 573.058838,271.144806 
	C571.024292,268.768311 568.989746,266.391846 566.524536,263.346466 
	C564.933838,263.241455 563.343140,263.136475 561.569092,263.019379 
	C561.569092,270.197083 561.569092,276.852264 561.569092,284.804626 
	C563.876648,283.567413 565.350830,282.777039 566.938354,281.135590 
M489.295013,267.240387 
	C489.162445,267.131775 489.029907,267.023193 488.635223,266.202057 
	C487.551575,262.219177 484.970825,262.503571 482.398956,263.476715 
	C481.689911,268.296082 480.987427,272.657257 480.432831,277.037170 
	C480.198761,278.885742 479.540314,281.870636 480.361481,282.421722 
	C482.226807,283.673553 484.889343,283.737488 487.056213,284.244171 
	C487.902313,282.562439 488.467590,281.438873 488.528625,281.317596 
	C492.258148,282.233551 495.390045,283.147156 498.584808,283.692413 
	C499.454132,283.840820 500.512878,282.879089 501.484711,282.426819 
	C500.782349,281.233429 500.310120,279.785919 499.330444,278.898804 
	C497.185913,276.956940 494.783936,275.299377 492.423828,273.476868 
	C495.789520,269.698883 498.360535,266.812927 501.452972,263.341644 
	C494.056396,262.784180 494.056396,262.784180 489.295013,267.240387 
M420.947754,264.029236 
	C420.947754,264.029236 421.096222,263.946594 420.924316,264.619690 
	C418.832886,267.972198 416.741455,271.324677 414.700684,274.595978 
	C412.328888,270.624878 410.152161,266.980408 407.118011,263.132751 
	C405.860107,263.132751 404.602203,263.132751 403.235260,263.132751 
	C402.746643,270.259003 402.288971,276.933624 401.726654,285.134491 
	C404.519226,283.714630 406.179596,282.870422 408.008545,281.327240 
	C409.077606,281.418732 410.645142,281.091888 411.132019,281.671997 
	C413.629578,284.647858 415.785583,285.260376 418.073334,281.531952 
	C418.465179,280.893341 419.241089,280.490356 420.239166,279.636810 
	C421.023041,284.344543 423.503571,284.564056 427.185974,282.738129 
	C426.892334,276.180603 426.600861,269.671509 426.291260,262.757019 
	C423.817169,263.327057 422.430084,263.646606 420.947754,264.029236 
M175.826492,201.499924 
	C175.826492,215.083649 175.826492,228.667389 175.826492,242.928619 
	C166.795685,242.928619 157.785858,242.928619 148.776031,242.928619 
	C148.618027,243.570190 148.460022,244.211761 148.302002,244.853348 
	C149.928421,245.481049 151.543091,246.622559 153.182968,246.660004 
	C181.507797,247.306915 209.823273,245.862045 238.167709,249.210709 
	C252.099335,250.856628 266.603394,249.022064 280.708984,247.483978 
	C298.215302,245.575058 314.666412,239.259369 330.268097,231.365204 
	C340.530853,226.172440 349.201843,218.512833 357.087158,209.892166 
	C367.106720,198.938263 374.165405,186.499359 378.029297,172.325546 
	C380.189575,164.401154 381.481537,156.222198 382.857574,148.105865 
	C385.260773,133.931488 384.056000,119.777176 380.725677,105.977318 
	C378.423004,96.435715 375.503052,86.751785 370.988251,78.108627 
	C365.272858,67.166977 357.079468,57.688248 347.437866,49.731659 
	C344.838074,47.586243 341.975739,45.717617 339.077820,43.982754 
	C330.795227,39.024326 322.694885,33.647167 314.006805,29.521418 
	C308.417419,26.867174 301.982452,25.794718 295.812622,24.602486 
	C282.467773,22.023781 269.095856,18.167433 255.652557,17.793098 
	C221.189743,16.833469 186.681854,17.469919 152.192322,17.574648 
	C150.820908,17.578812 149.452805,18.671385 148.083160,19.256832 
	C149.522827,19.937912 150.948761,21.171757 152.404449,21.207907 
	C160.247116,21.402666 168.097168,21.300068 175.826492,21.300068 
	C175.826492,81.572174 175.826492,141.036041 175.826492,201.499924 
M571.424194,117.461143 
	C561.137390,117.554893 550.821777,117.472298 540.927673,122.095734 
	C541.483459,123.497215 541.675110,124.695564 542.333557,125.522049 
	C545.967041,130.082870 546.650085,134.801437 543.667847,139.981125 
	C542.652100,141.745239 542.002808,143.718262 541.157532,145.582886 
	C532.738342,164.156494 524.313171,182.727386 515.889648,201.299042 
	C515.413208,201.152985 514.936707,201.006927 514.460205,200.860870 
	C514.460205,199.310577 514.460205,197.760284 514.460205,196.251434 
	C509.168335,194.892715 509.479370,195.126907 506.402130,199.213928 
	C505.010773,201.061920 501.875824,203.103836 499.921356,202.770966 
	C489.097992,200.927582 478.394531,198.380203 465.731812,195.662231 
	C475.119385,183.276871 483.569122,172.154846 491.990143,161.011078 
	C499.982391,150.434708 508.082581,139.933731 515.757263,129.131012 
	C516.799255,127.664330 516.202759,124.382751 515.311951,122.419197 
	C514.703369,121.077698 512.046143,119.553757 510.679443,119.848488 
	C501.804565,121.762436 493.055389,120.567070 484.223083,119.736214 
	C473.871948,118.762489 463.486725,117.984840 453.098907,117.625511 
	C446.251495,117.388649 441.879639,120.434792 442.301819,124.797028 
	C442.843079,130.389709 444.112823,135.921310 445.241394,141.443924 
	C445.840912,144.377808 447.891479,144.075684 450.132416,143.277405 
	C452.651581,142.380005 455.220917,141.104324 457.806183,141.008194 
	C465.792328,140.711182 473.797760,140.818329 481.792664,140.952347 
	C483.747070,140.985123 485.689758,141.720642 488.556335,142.327499 
	C478.678406,154.886536 469.444458,166.565613 460.278442,178.297745 
	C450.782654,190.451920 441.271667,202.595886 431.933441,214.870697 
	C428.135101,219.863480 430.867676,225.336624 437.112671,226.184021 
	C441.265198,226.747498 443.714203,224.364258 445.662537,221.476501 
	C449.698059,215.495163 454.919037,213.634155 461.650330,216.155243 
	C467.481293,218.339127 473.335114,220.478653 479.074310,222.886826 
	C486.928070,226.182236 494.979309,229.397278 503.325134,225.851334 
	C507.028198,224.278000 509.505371,224.165009 512.900269,226.069290 
	C517.335693,228.557205 521.059204,226.658005 522.634338,221.927231 
	C525.456421,213.451126 528.244751,204.959167 531.346252,196.584564 
	C531.980835,194.871185 533.814697,192.538177 535.294495,192.382706 
	C542.338562,191.642639 549.450500,191.540466 556.539673,191.242905 
	C560.529724,191.075439 561.865784,192.951614 561.998718,196.987564 
	C562.224243,203.835922 562.941772,210.698456 563.946960,217.481766 
	C564.856750,223.621246 569.037720,226.837036 575.293091,227.124695 
	C587.019836,227.663956 595.792419,221.720963 603.963501,214.471115 
	C601.200195,207.750870 601.214294,207.783966 595.391357,210.263397 
	C593.478882,211.077744 591.472595,211.671677 589.000183,212.546509 
	C587.880737,207.029648 586.198242,202.006393 585.953613,196.914047 
	C585.245239,182.168777 585.162292,167.394379 584.739380,152.634125 
	C584.489197,143.899841 584.103088,135.168686 583.698914,126.439796 
	C583.327820,118.424568 582.443420,117.627754 574.383850,117.529739 
	C573.717712,117.521629 573.051758,117.487251 571.424194,117.461143 
M403.071960,119.444183 
	C397.774811,119.971481 399.335480,123.511314 400.878387,125.811012 
	C404.673340,131.467468 406.603943,136.844193 404.552338,143.990585 
	C401.165863,155.786514 399.010101,167.931900 396.196045,179.897171 
	C393.639984,190.765121 390.842926,201.616150 391.128418,212.874176 
	C391.458008,225.871994 399.151276,229.712906 410.285919,226.058212 
	C417.379547,223.729889 423.652679,218.901733 429.626740,215.566788 
	C427.156738,203.710602 420.872040,211.259048 415.877045,212.006012 
	C415.877045,209.082138 415.458099,206.679489 415.942566,204.475464 
	C420.278870,184.748749 424.757935,165.053314 429.230804,145.356812 
	C431.046906,137.359436 433.612183,129.420517 431.528107,121.099991 
	C431.195160,119.770782 429.787170,117.635803 428.955963,117.672668 
	C420.584320,118.043922 412.229309,118.790680 403.071960,119.444183 
M362.890137,320.671997 
	C363.993317,315.713440 366.801208,313.938782 370.791565,315.094574 
	C372.612183,315.621918 374.746216,315.067078 377.669281,314.973114 
	C373.721588,309.897003 370.088928,308.554749 364.455902,309.938873 
	C360.496307,310.911804 357.014648,312.939545 356.334320,317.628082 
	C355.641510,322.402649 355.658142,327.436005 361.096069,329.026245 
	C366.080719,330.483948 371.506897,330.431946 376.422302,331.008087 
	C376.898285,327.544617 377.639282,325.081879 377.417816,322.708984 
	C377.276154,321.190613 375.719971,318.597626 374.785797,318.592285 
	C372.257935,318.577759 369.723633,319.688080 367.191864,320.352234 
	C367.944702,321.933929 368.697540,323.515625 369.336273,324.857544 
	C367.511719,324.580231 363.444550,327.131470 362.890137,320.671997 
M475.152252,283.709930 
	C476.019867,283.226166 476.887512,282.742432 477.755127,282.258667 
	C476.953308,281.123016 476.335266,279.767059 475.303772,278.906769 
	C473.972107,277.796143 472.309937,277.081879 472.003479,276.903442 
	C473.116760,272.831451 474.705200,269.926910 474.339233,267.294037 
	C474.111755,265.657318 471.090271,263.631317 469.028168,263.204865 
	C465.726074,262.522003 462.179382,263.021973 458.852570,263.021973 
	C458.201599,269.473816 457.511017,275.334198 457.134247,281.214661 
	C457.083282,282.009735 458.484589,283.412628 459.430450,283.642944 
	C461.082397,284.045258 462.903015,283.755096 464.733093,283.755096 
	C464.857605,281.247253 464.948486,279.416443 465.065613,277.057465 
	C467.850067,280.509003 469.068726,285.072357 475.152252,283.709930 
M363.091553,271.870575 
	C359.835754,263.244324 355.058228,261.253265 342.984711,263.731323 
	C342.984711,266.936981 342.984711,270.226654 342.984711,273.516327 
	C342.984711,276.778381 342.984711,280.040436 342.984711,283.129974 
	C356.787018,285.745422 362.205231,282.774719 363.091553,271.870575 
M250.709473,274.489105 
	C252.605270,277.000000 254.325974,279.677002 256.477692,281.945099 
	C257.420807,282.939270 259.221436,283.319397 260.684387,283.467590 
	C261.011566,283.500763 261.912689,281.399841 261.939606,280.266937 
	C262.072357,274.679962 261.999969,269.088135 261.999969,263.294006 
	C260.839417,263.294006 259.269958,263.294006 257.437103,263.294006 
	C257.282410,266.140717 257.141296,268.737274 256.997101,271.390808 
	C251.685272,270.296539 251.748825,260.567993 244.453644,263.386597 
	C244.453644,270.408539 244.453644,277.030548 244.453644,283.988556 
	C246.518250,283.726593 247.931091,283.547333 249.512024,283.346771 
	C249.673203,280.248077 249.818359,277.457214 250.709473,274.489105 
M310.556030,283.105164 
	C313.110870,279.501404 316.867554,278.811432 319.442047,281.002045 
	C321.218933,282.513977 323.592072,283.325195 325.698730,284.449554 
	C326.192993,283.884308 326.687286,283.319061 327.181549,282.753815 
	C324.605835,277.304962 322.223663,271.750763 319.346863,266.465790 
	C318.371796,264.674469 316.147217,263.563324 313.976562,261.696686 
	C310.364502,269.922028 307.403778,276.664124 304.227844,283.896301 
	C306.618439,283.739899 308.258301,283.632599 310.556030,283.105164 
M416.450012,330.587097 
	C417.161804,329.151733 417.873627,327.716370 418.986389,325.472565 
	C423.324554,327.328705 427.538849,329.131866 432.581543,331.289459 
	C432.581543,329.229156 432.986267,327.702393 432.509583,326.535736 
	C430.705353,322.119751 428.742462,317.755157 426.561279,313.514130 
	C425.825348,312.083313 424.017334,309.922577 423.131897,310.112518 
	C421.196472,310.527557 418.765106,311.837891 417.915894,313.491180 
	C415.628906,317.943359 414.065247,322.767059 412.054382,327.847809 
	C413.128479,328.617950 414.435883,329.555389 416.450012,330.587097 
M382.053131,262.988342 
	C377.793396,262.988342 373.533661,262.988342 369.516602,262.988342 
	C369.516602,270.244019 369.516602,276.751068 369.516602,284.011017 
	C373.232422,284.011017 377.190125,283.949890 381.145020,284.029114 
	C384.729492,284.100891 385.415649,282.424194 384.224701,279.138367 
	C381.111420,278.883789 378.032745,278.632080 374.954071,278.380341 
	C374.885712,277.811401 374.817322,277.242462 374.748962,276.673523 
	C376.261414,276.166473 377.848022,275.078674 379.272583,275.260498 
	C383.675293,275.822479 384.421539,273.995178 383.308624,270.314758 
	C380.320404,270.600006 377.186005,272.422424 374.011475,268.388153 
	C378.202850,268.128143 381.254120,267.938873 385.590973,267.669861 
	C384.433533,265.654205 383.683655,264.348328 382.053131,262.988342 
M286.369537,277.113953 
	C285.251892,277.295593 284.134521,277.624817 283.016510,277.627045 
	C280.928955,277.631165 277.954712,278.237183 276.975067,277.140503 
	C275.717743,275.732971 275.209808,272.556183 275.923004,270.751923 
	C276.935822,268.189636 279.831573,266.776581 282.522339,268.689209 
	C285.800049,271.019012 287.194519,269.589233 288.462708,266.816864 
	C282.561096,259.351776 273.282928,263.597229 270.018951,270.450378 
	C268.039276,274.606964 268.628296,278.427490 272.259277,281.557861 
	C275.217682,284.108368 282.378784,285.141052 285.162292,282.919189 
	C286.615509,281.759216 290.675140,280.642242 286.369537,277.113953 
M344.116852,318.865051 
	C344.667053,321.252594 344.774780,323.878418 345.895081,325.958984 
	C346.961670,327.939758 349.085510,329.351257 351.607605,331.877625 
	C351.607605,323.321411 351.607605,316.732422 351.607605,310.060577 
	C349.648102,310.060577 348.037018,310.060577 346.998108,310.060577 
	C346.050171,313.032074 345.233734,315.591400 344.116852,318.865051 
z"/>
<path fill="#FBFBFB" opacity="1.000000" stroke="none" 
	d="
M175.826492,200.999908 
	C175.826492,141.036041 175.826492,81.572174 175.826492,21.300068 
	C168.097168,21.300068 160.247116,21.402666 152.404449,21.207907 
	C150.948761,21.171757 149.522827,19.937912 148.083160,19.256832 
	C149.452805,18.671385 150.820908,17.578812 152.192322,17.574648 
	C186.681854,17.469919 221.189743,16.833469 255.652557,17.793098 
	C269.095856,18.167433 282.467773,22.023781 295.812622,24.602486 
	C301.982452,25.794718 308.417419,26.867174 314.006805,29.521418 
	C322.694885,33.647167 330.795227,39.024326 339.077820,43.982754 
	C341.975739,45.717617 344.838074,47.586243 347.437866,49.731659 
	C357.079468,57.688248 365.272858,67.166977 370.988251,78.108627 
	C375.503052,86.751785 378.423004,96.435715 380.725677,105.977318 
	C384.056000,119.777176 385.260773,133.931488 382.857574,148.105865 
	C381.481537,156.222198 380.189575,164.401154 378.029297,172.325546 
	C374.165405,186.499359 367.106720,198.938263 357.087158,209.892166 
	C349.201843,218.512833 340.530853,226.172440 330.268097,231.365204 
	C314.666412,239.259369 298.215302,245.575058 280.708984,247.483978 
	C266.603394,249.022064 252.099335,250.856628 238.167709,249.210709 
	C209.823273,245.862045 181.507797,247.306915 153.182968,246.660004 
	C151.543091,246.622559 149.928421,245.481049 148.302002,244.853348 
	C148.460022,244.211761 148.618027,243.570190 148.776031,242.928619 
	C157.785858,242.928619 166.795685,242.928619 175.826492,242.928619 
	C175.826492,228.667389 175.826492,215.083649 175.826492,200.999908 
M346.869476,125.702316 
	C345.584015,117.405556 344.623932,109.042114 342.940155,100.826996 
	C340.105896,86.998741 335.778778,73.886635 327.422089,62.001743 
	C318.239502,48.942188 306.636444,38.891788 292.508209,32.475483 
	C282.720673,28.030519 271.772614,25.370169 261.069855,23.894758 
	C245.619888,21.764931 229.922226,21.431847 214.070190,20.313766 
	C214.070190,95.438545 214.070190,169.083481 214.070190,242.803726 
	C222.652756,243.496628 230.697327,244.718277 238.731735,244.654694 
	C249.585678,244.568832 260.501801,244.052856 271.263306,242.702118 
	C284.278168,241.068542 296.583038,236.446472 307.892975,229.905396 
	C313.003448,226.949738 316.943970,221.997269 321.494568,218.041946 
	C330.757568,209.990616 335.168793,199.080612 338.948517,187.930832 
	C345.680695,168.071655 347.460602,147.503403 346.869476,125.702316 
z"/>
<path fill="#F5F6F5" opacity="1.000000" stroke="none" 
	d="
M571.904968,117.463112 
	C573.051758,117.487251 573.717712,117.521629 574.383850,117.529739 
	C582.443420,117.627754 583.327820,118.424568 583.698914,126.439796 
	C584.103088,135.168686 584.489197,143.899841 584.739380,152.634125 
	C585.162292,167.394379 585.245239,182.168777 585.953613,196.914047 
	C586.198242,202.006393 587.880737,207.029648 589.000183,212.546509 
	C591.472595,211.671677 593.478882,211.077744 595.391357,210.263397 
	C601.214294,207.783966 601.200195,207.750870 603.963501,214.471115 
	C595.792419,221.720963 587.019836,227.663956 575.293091,227.124695 
	C569.037720,226.837036 564.856750,223.621246 563.946960,217.481766 
	C562.941772,210.698456 562.224243,203.835922 561.998718,196.987564 
	C561.865784,192.951614 560.529724,191.075439 556.539673,191.242905 
	C549.450500,191.540466 542.338562,191.642639 535.294495,192.382706 
	C533.814697,192.538177 531.980835,194.871185 531.346252,196.584564 
	C528.244751,204.959167 525.456421,213.451126 522.634338,221.927231 
	C521.059204,226.658005 517.335693,228.557205 512.900269,226.069290 
	C509.505371,224.165009 507.028198,224.278000 503.325134,225.851334 
	C494.979309,229.397278 486.928070,226.182236 479.074310,222.886826 
	C473.335114,220.478653 467.481293,218.339127 461.650330,216.155243 
	C454.919037,213.634155 449.698059,215.495163 445.662537,221.476501 
	C443.714203,224.364258 441.265198,226.747498 437.112671,226.184021 
	C430.867676,225.336624 428.135101,219.863480 431.933441,214.870697 
	C441.271667,202.595886 450.782654,190.451920 460.278442,178.297745 
	C469.444458,166.565613 478.678406,154.886536 488.556335,142.327499 
	C485.689758,141.720642 483.747070,140.985123 481.792664,140.952347 
	C473.797760,140.818329 465.792328,140.711182 457.806183,141.008194 
	C455.220917,141.104324 452.651581,142.380005 450.132416,143.277405 
	C447.891479,144.075684 445.840912,144.377808 445.241394,141.443924 
	C444.112823,135.921310 442.843079,130.389709 442.301819,124.797028 
	C441.879639,120.434792 446.251495,117.388649 453.098907,117.625511 
	C463.486725,117.984840 473.871948,118.762489 484.223083,119.736214 
	C493.055389,120.567070 501.804565,121.762436 510.679443,119.848488 
	C512.046143,119.553757 514.703369,121.077698 515.311951,122.419197 
	C516.202759,124.382751 516.799255,127.664330 515.757263,129.131012 
	C508.082581,139.933731 499.982391,150.434708 491.990143,161.011078 
	C483.569122,172.154846 475.119385,183.276871 465.731812,195.662231 
	C478.394531,198.380203 489.097992,200.927582 499.921356,202.770966 
	C501.875824,203.103836 505.010773,201.061920 506.402130,199.213928 
	C509.479370,195.126907 509.168335,194.892715 514.460205,196.251434 
	C514.460205,197.760284 514.460205,199.310577 514.460205,200.860870 
	C514.936707,201.006927 515.413208,201.152985 515.889648,201.299042 
	C524.313171,182.727386 532.738342,164.156494 541.157532,145.582886 
	C542.002808,143.718262 542.652100,141.745239 543.667847,139.981125 
	C546.650085,134.801437 545.967041,130.082870 542.333557,125.522049 
	C541.675110,124.695564 541.483459,123.497215 540.927673,122.095734 
	C550.821777,117.472298 561.137390,117.554893 571.904968,117.463112 
M555.041077,144.909409 
	C549.961304,156.488480 544.881531,168.067551 539.844971,179.547989 
	C546.951416,179.547989 554.021790,179.547989 560.580811,179.547989 
	C560.580811,164.573349 560.580811,149.821869 560.580811,135.070404 
	C560.187622,135.063721 559.794495,135.057053 559.401306,135.050369 
	C558.087219,138.141541 556.773071,141.232712 555.041077,144.909409 
z"/>
<path fill="#F6F7F4" opacity="1.000000" stroke="none" 
	d="
M403.470795,119.438026 
	C412.229309,118.790680 420.584320,118.043922 428.955963,117.672668 
	C429.787170,117.635803 431.195160,119.770782 431.528107,121.099991 
	C433.612183,129.420517 431.046906,137.359436 429.230804,145.356812 
	C424.757935,165.053314 420.278870,184.748749 415.942566,204.475464 
	C415.458099,206.679489 415.877045,209.082138 415.877045,212.006012 
	C420.872040,211.259048 427.156738,203.710602 429.626740,215.566788 
	C423.652679,218.901733 417.379547,223.729889 410.285919,226.058212 
	C399.151276,229.712906 391.458008,225.871994 391.128418,212.874176 
	C390.842926,201.616150 393.639984,190.765121 396.196045,179.897171 
	C399.010101,167.931900 401.165863,155.786514 404.552338,143.990585 
	C406.603943,136.844193 404.673340,131.467468 400.878387,125.811012 
	C399.335480,123.511314 397.774811,119.971481 403.470795,119.438026 
z"/>
<path fill="#9F824A" opacity="1.000000" stroke="none" 
	d="
M388.881378,81.036240 
	C389.081390,81.083565 389.281403,81.130882 389.788330,81.600433 
	C390.463928,82.459618 390.832611,82.896584 391.201294,83.333549 
	C391.467773,82.896866 391.734222,82.460167 392.000671,82.023468 
	C395.680573,81.547394 396.258209,78.590836 397.349426,75.390381 
	C398.846985,75.316986 399.997742,75.620865 401.148529,75.924751 
	C401.148529,75.924751 401.076202,75.970184 401.133209,76.153900 
	C401.327332,76.628227 401.535919,76.852303 401.815948,77.009850 
	C401.815948,77.009850 402.001068,77.019119 402.130188,77.333565 
	C402.782043,78.096535 403.304779,78.545059 403.827515,78.993576 
	C412.627655,78.588585 416.174713,73.103584 413.364319,64.607880 
	C412.985168,63.461678 413.670624,61.805580 414.269379,60.584866 
	C414.461670,60.192837 416.552490,60.100002 416.759125,60.457436 
	C417.612976,61.934464 419.081848,64.293022 418.522003,65.149887 
	C414.827606,70.804436 418.508453,74.406624 421.857605,78.715393 
	C422.404938,79.162552 422.680115,79.171021 422.955261,79.179482 
	C423.424408,79.185501 423.893524,79.191528 424.883667,79.388947 
	C425.922028,79.337921 426.439423,79.095497 426.956787,78.853065 
	C426.956787,78.853065 426.967712,78.934288 427.293213,78.940445 
	C428.404388,78.282280 429.190033,77.617958 429.975647,76.953629 
	C429.975647,76.953629 430.000580,76.999268 430.318176,76.943275 
	C431.810303,76.271957 432.984833,75.656624 434.159363,75.041275 
	C435.772614,77.300255 437.362183,81.398483 439.004242,81.419609 
	C442.038361,81.458672 445.252106,79.359192 448.104401,77.667389 
	C450.090179,76.489578 451.597473,74.505119 453.768188,73.357491 
	C449.348633,78.488380 445.443939,83.859558 445.074677,90.731438 
	C444.841278,95.074722 443.564972,97.074478 439.076324,97.271988 
	C436.019928,97.406479 433.002472,98.425682 429.074310,99.026688 
	C419.743500,99.018456 411.305939,99.032845 402.868408,99.047234 
	C399.397583,98.438698 395.947571,97.601944 392.450317,97.282654 
	C388.566589,96.928062 387.467804,94.776237 387.822083,90.543373 
	C387.511261,88.180397 387.113190,86.612076 386.715118,85.043755 
	C386.563446,84.901169 386.411804,84.758591 386.129211,83.974442 
	C386.959290,82.567329 387.920349,81.801788 388.881378,81.036240 
M409.972076,90.860649 
	C415.564331,92.720894 421.027710,92.681419 426.365387,90.788818 
	C426.318878,90.040352 426.272369,89.291885 426.225861,88.543419 
	C420.656097,89.104477 415.086365,89.665535 409.972076,90.860649 
z"/>
<path fill="#A27F45" opacity="1.000000" stroke="none" 
	d="
M421.043030,263.966187 
	C422.430084,263.646606 423.817169,263.327057 426.291260,262.757019 
	C426.600861,269.671509 426.892334,276.180603 427.185974,282.738129 
	C423.503571,284.564056 421.023041,284.344543 420.239166,279.636810 
	C419.241089,280.490356 418.465179,280.893341 418.073334,281.531952 
	C415.785583,285.260376 413.629578,284.647858 411.132019,281.671997 
	C410.645142,281.091888 409.077606,281.418732 407.552002,281.615784 
	C403.796173,281.193481 403.843140,278.697815 404.009827,276.131378 
	C404.227875,272.774567 404.437012,269.417145 404.663727,265.843262 
	C405.545013,265.176025 406.760223,264.255951 407.975464,263.335907 
	C410.152161,266.980408 412.328888,270.624878 414.700684,274.595978 
	C416.741455,271.324677 418.832886,267.972198 420.993591,264.287994 
	C421.062866,263.956299 421.043030,263.966217 421.043030,263.966187 
z"/>
<path fill="#997B47" opacity="1.000000" stroke="none" 
	d="
M362.890472,321.097900 
	C363.444550,327.131470 367.511719,324.580231 369.336273,324.857544 
	C368.697540,323.515625 367.944702,321.933929 367.191864,320.352234 
	C369.723633,319.688080 372.257935,318.577759 374.785797,318.592285 
	C375.719971,318.597626 377.276154,321.190613 377.417816,322.708984 
	C377.639282,325.081879 376.898285,327.544617 376.422302,331.008087 
	C371.506897,330.431946 366.080719,330.483948 361.096069,329.026245 
	C355.658142,327.436005 355.641510,322.402649 356.334320,317.628082 
	C357.014648,312.939545 360.496307,310.911804 364.455902,309.938873 
	C370.088928,308.554749 373.721588,309.897003 377.669281,314.973114 
	C374.746216,315.067078 372.612183,315.621918 370.791565,315.094574 
	C366.801208,313.938782 363.993317,315.713440 362.890472,321.097900 
z"/>
<path fill="#997B46" opacity="1.000000" stroke="none" 
	d="
M474.744751,283.722534 
	C469.068726,285.072357 467.850067,280.509003 465.065613,277.057465 
	C464.948486,279.416443 464.857605,281.247253 464.733093,283.755096 
	C462.903015,283.755096 461.082397,284.045258 459.430450,283.642944 
	C458.484589,283.412628 457.083282,282.009735 457.134247,281.214661 
	C457.511017,275.334198 458.201599,269.473816 458.852570,263.021973 
	C462.179382,263.021973 465.726074,262.522003 469.028168,263.204865 
	C471.090271,263.631317 474.111755,265.657318 474.339233,267.294037 
	C474.705200,269.926910 473.116760,272.831451 472.003479,276.903442 
	C472.309937,277.081879 473.972107,277.796143 475.303772,278.906769 
	C476.335266,279.767059 476.953308,281.123016 477.755127,282.258667 
	C476.887512,282.742432 476.019867,283.226166 474.744751,283.722534 
z"/>
<path fill="#997B47" opacity="1.000000" stroke="none" 
	d="
M489.658020,267.604309 
	C494.056396,262.784180 494.056396,262.784180 501.452972,263.341644 
	C498.360535,266.812927 495.789520,269.698883 492.423828,273.476868 
	C494.783936,275.299377 497.185913,276.956940 499.330444,278.898804 
	C500.310120,279.785919 500.782349,281.233429 501.484680,282.426819 
	C500.512878,282.879089 499.454132,283.840820 498.584808,283.692413 
	C495.390045,283.147156 492.258148,282.233551 488.528625,281.317596 
	C488.467590,281.438873 487.902313,282.562439 487.056213,284.244171 
	C484.889343,283.737488 482.226807,283.673553 480.361481,282.421722 
	C479.540314,281.870636 480.198761,278.885742 480.432831,277.037170 
	C480.987427,272.657257 481.689911,268.296082 482.398956,263.476715 
	C484.970825,262.503571 487.551575,262.219177 488.475372,266.716614 
	C488.338684,267.793060 488.361816,268.355011 488.384949,268.916931 
	C488.809296,268.479370 489.233643,268.041840 489.658020,267.604309 
z"/>
<path fill="#9D7F46" opacity="1.000000" stroke="none" 
	d="
M363.092438,272.277893 
	C362.205231,282.774719 356.787018,285.745422 342.984711,283.129974 
	C342.984711,280.040436 342.984711,276.778381 342.984711,273.516327 
	C342.984711,270.226654 342.984711,266.936981 342.984711,263.731323 
	C355.058228,261.253265 359.835754,263.244324 363.092438,272.277893 
M352.896851,268.063782 
	C351.656921,268.155273 350.416992,268.246765 348.923187,268.356995 
	C348.923187,270.535339 348.611450,272.412262 349.013550,274.121155 
	C349.392792,275.732910 350.523468,277.167847 351.323608,278.680603 
	C352.911987,277.575958 355.102295,276.810425 355.957367,275.292664 
	C357.507416,272.541382 356.679504,269.868896 352.896851,268.063782 
z"/>
<path fill="#9D7D46" opacity="1.000000" stroke="none" 
	d="
M250.336502,274.577698 
	C249.818359,277.457214 249.673203,280.248077 249.512024,283.346771 
	C247.931091,283.547333 246.518250,283.726593 244.453644,283.988556 
	C244.453644,277.030548 244.453644,270.408539 244.453644,263.386597 
	C251.748825,260.567993 251.685272,270.296539 256.997101,271.390808 
	C257.141296,268.737274 257.282410,266.140717 257.437103,263.294006 
	C259.269958,263.294006 260.839417,263.294006 261.999969,263.294006 
	C261.999969,269.088135 262.072357,274.679962 261.939606,280.266937 
	C261.912689,281.399841 261.011566,283.500763 260.684387,283.467590 
	C259.221436,283.319397 257.420807,282.939270 256.477692,281.945099 
	C254.325974,279.677002 252.605270,277.000000 250.336502,274.577698 
z"/>
<path fill="#997B44" opacity="1.000000" stroke="none" 
	d="
M586.908020,270.504639 
	C586.908020,270.504639 586.762939,270.277527 587.121826,269.955078 
	C587.617371,268.954285 587.754028,268.275940 587.890747,267.597626 
	C587.873230,267.342987 587.971130,267.145569 588.660583,266.898499 
	C589.414368,266.495789 589.692017,266.199921 589.969666,265.904053 
	C589.969666,265.904053 589.917114,265.984436 590.142822,265.878601 
	C590.568542,265.479614 590.768555,265.186401 590.968506,264.893219 
	C590.968506,264.893219 590.970337,264.973755 591.330566,264.984924 
	C593.122803,264.389069 594.554749,263.782043 595.986755,263.175049 
	C600.072693,262.938171 604.418152,261.935486 605.617493,266.968048 
	C606.420776,272.349365 607.224060,277.730652 608.260315,284.672516 
	C601.819336,283.713074 596.173828,282.872131 590.283020,281.351440 
	C589.290344,280.154358 588.543030,279.637024 587.795654,279.119659 
	C587.795654,279.119659 587.850708,279.051697 587.906311,278.722412 
	C587.578308,277.605682 587.194763,276.818237 586.811157,276.030823 
	C586.811157,276.030823 586.909607,276.006866 586.948914,275.593079 
	C586.961487,273.621063 586.934753,272.062866 586.908020,270.504639 
M600.040405,268.065735 
	C598.083618,268.647583 595.828735,268.800873 594.237244,269.907867 
	C591.595398,271.745422 591.588135,274.489014 593.901733,276.651581 
	C595.910034,278.528839 598.361145,280.042328 600.513977,277.519257 
	C599.286499,275.788818 598.320740,274.427368 597.355042,273.065857 
	C599.013306,272.068970 600.671631,271.072052 603.186218,269.560364 
	C602.537659,269.214447 601.659973,268.746338 600.040405,268.065735 
z"/>
<path fill="#9A7B46" opacity="1.000000" stroke="none" 
	d="
M310.227112,283.315247 
	C308.258301,283.632599 306.618439,283.739899 304.227844,283.896301 
	C307.403778,276.664124 310.364502,269.922028 313.976562,261.696686 
	C316.147217,263.563324 318.371796,264.674469 319.346863,266.465790 
	C322.223663,271.750763 324.605835,277.304962 327.181549,282.753815 
	C326.687286,283.319061 326.192993,283.884308 325.698730,284.449554 
	C323.592072,283.325195 321.218933,282.513977 319.442047,281.002045 
	C316.867554,278.811432 313.110870,279.501404 310.227112,283.315247 
z"/>
<path fill="#9A7B46" opacity="1.000000" stroke="none" 
	d="
M416.096680,330.539978 
	C414.435883,329.555389 413.128479,328.617950 412.054382,327.847809 
	C414.065247,322.767059 415.628906,317.943359 417.915894,313.491180 
	C418.765106,311.837891 421.196472,310.527557 423.131897,310.112518 
	C424.017334,309.922577 425.825348,312.083313 426.561279,313.514130 
	C428.742462,317.755157 430.705353,322.119751 432.509583,326.535736 
	C432.986267,327.702393 432.581543,329.229156 432.581543,331.289459 
	C427.538849,329.131866 423.324554,327.328705 418.986389,325.472565 
	C417.873627,327.716370 417.161804,329.151733 416.096680,330.539978 
z"/>
<path fill="#9F824A" opacity="1.000000" stroke="none" 
	d="
M382.493439,263.015381 
	C383.683655,264.348328 384.433533,265.654205 385.590973,267.669861 
	C381.254120,267.938873 378.202850,268.128143 374.011475,268.388153 
	C377.186005,272.422424 380.320404,270.600006 383.308624,270.314758 
	C384.421539,273.995178 383.675293,275.822479 379.272583,275.260498 
	C377.848022,275.078674 376.261414,276.166473 374.748962,276.673523 
	C374.817322,277.242462 374.885712,277.811401 374.954071,278.380341 
	C378.032745,278.632080 381.111420,278.883789 384.224701,279.138367 
	C385.415649,282.424194 384.729492,284.100891 381.145020,284.029114 
	C377.190125,283.949890 373.232422,284.011017 369.516602,284.011017 
	C369.516602,276.751068 369.516602,270.244019 369.516602,262.988342 
	C373.533661,262.988342 377.793396,262.988342 382.493439,263.015381 
z"/>
<path fill="#A27F43" opacity="1.000000" stroke="none" 
	d="
M566.955200,264.015350 
	C568.989746,266.391846 571.024292,268.768311 573.058838,271.144806 
	C573.496033,270.977417 573.933228,270.810028 574.370483,270.642670 
	C574.672913,268.628357 574.975342,266.614075 575.313965,264.358978 
	C576.540588,264.004181 577.901794,263.610443 579.625549,263.111816 
	C579.625549,270.042328 579.625549,276.717285 579.625549,283.552979 
	C571.996094,285.243073 571.753235,277.195709 566.938354,273.867828 
	C566.938354,276.697296 566.938354,278.916443 566.473145,281.562256 
	C564.999268,280.871399 563.212219,279.809418 563.127869,278.626007 
	C562.873962,275.065552 563.841980,271.367493 563.280396,267.893311 
	C562.693054,264.259918 564.175720,263.832306 566.955200,264.015350 
z"/>
<path fill="#977942" opacity="1.000000" stroke="none" 
	d="
M440.998260,263.165649 
	C448.183929,261.907806 447.571167,268.668152 449.750916,272.160492 
	C451.750366,275.363861 452.407166,279.405334 453.786896,283.463959 
	C451.119629,283.787842 448.974457,284.669617 446.997864,281.170929 
	C446.345093,280.015503 441.026978,280.109589 439.016083,281.425903 
	C435.835876,283.507690 436.254761,284.147583 431.096649,283.185516 
	C431.853546,281.197266 432.589996,279.262756 433.837891,277.393188 
	C438.316315,274.206451 439.524872,269.730103 439.927002,264.895691 
	C439.927002,264.895691 439.954895,264.971008 440.184570,264.858948 
	C440.608917,264.219788 440.803589,263.692719 440.998260,263.165649 
z"/>
<path fill="#9A7B46" opacity="1.000000" stroke="none" 
	d="
M331.031952,330.853149 
	C330.573914,330.898560 330.115906,330.943939 329.170227,330.631836 
	C328.045929,329.570557 327.260162,328.172089 326.795929,328.271729 
	C322.737335,329.142853 322.958160,326.522003 323.005920,323.943726 
	C323.261536,310.148132 320.578156,310.967804 335.850433,311.009857 
	C344.203857,316.198792 343.171478,325.460846 333.148773,330.621155 
	C332.112701,330.578308 331.572327,330.715729 331.031952,330.853149 
M332.931793,315.215149 
	C331.384705,315.109955 329.837646,315.004730 328.149048,314.889923 
	C327.770935,318.538055 327.456665,321.569977 327.127808,324.742676 
	C330.050720,324.742676 332.408966,324.742676 335.723450,324.742676 
	C334.918762,321.347534 334.259644,318.566437 332.931793,315.215149 
z"/>
<path fill="#9A7C49" opacity="1.000000" stroke="none" 
	d="
M286.643921,277.300995 
	C290.675140,280.642242 286.615509,281.759216 285.162292,282.919189 
	C282.378784,285.141052 275.217682,284.108368 272.259277,281.557861 
	C268.628296,278.427490 268.039276,274.606964 270.018951,270.450378 
	C273.282928,263.597229 282.561096,259.351776 288.462708,266.816864 
	C287.194519,269.589233 285.800049,271.019012 282.522339,268.689209 
	C279.831573,266.776581 276.935822,268.189636 275.923004,270.751923 
	C275.209808,272.556183 275.717743,275.732971 276.975067,277.140503 
	C277.954712,278.237183 280.928955,277.631165 283.016510,277.627045 
	C284.134521,277.624817 285.251892,277.295593 286.643921,277.300995 
z"/>
<path fill="#9F824A" opacity="1.000000" stroke="none" 
	d="
M188.755539,278.030365 
	C189.520020,279.582153 190.284500,281.133942 191.243912,283.081421 
	C187.906555,283.855957 185.703995,284.910522 183.708908,281.202545 
	C183.048874,279.975830 176.712982,280.000702 176.505829,280.625275 
	C175.168198,284.658569 172.321533,283.671936 168.665161,283.644470 
	C171.873138,276.904602 174.758377,270.528717 178.016068,264.349182 
	C178.485519,263.458679 180.747116,263.512939 182.515198,263.573273 
	C181.990524,265.084869 181.130005,266.153229 180.054291,267.488739 
	C182.049545,268.739716 183.868286,269.880005 185.687012,271.020294 
	C185.687012,271.020294 186.027771,271.385010 186.013245,272.016724 
	C186.691391,274.087769 187.384064,275.527069 188.076736,276.966400 
	C188.076736,276.966400 188.006317,276.989807 188.075562,277.180908 
	C188.275146,277.659363 188.478729,277.878815 188.755539,278.030365 
z"/>
<path fill="#A58449" opacity="1.000000" stroke="none" 
	d="
M518.960266,263.173126 
	C519.793762,264.370605 520.627197,265.568054 521.901428,267.398804 
	C517.507568,267.912476 514.399109,268.275848 511.290710,268.639252 
	C511.281006,269.164642 511.271332,269.690033 511.261658,270.215424 
	C513.008484,270.468079 514.771729,270.641357 516.497009,270.998230 
	C517.899414,271.288361 519.256226,271.798492 520.633301,272.211060 
	C519.416138,273.456696 518.394714,275.128174 516.917114,275.807587 
	C515.817749,276.313110 514.127441,275.533630 512.695740,275.325836 
	C512.420349,276.935242 512.420349,276.935242 522.037659,280.022217 
	C520.770935,281.503296 519.734558,282.715057 518.041260,283.642700 
	C515.423889,283.211884 513.321899,283.453491 511.544281,282.805420 
	C509.887848,282.201477 507.299408,280.616821 507.328735,279.523132 
	C507.475067,274.071838 508.349457,268.640045 508.967590,263.201416 
	C509.147552,263.166809 509.327484,263.132202 510.075562,263.387573 
	C513.415833,263.509430 516.188049,263.341278 518.960266,263.173126 
z"/>
<path fill="#A9854C" opacity="1.000000" stroke="none" 
	d="
M234.967422,263.149078 
	C239.505493,262.594543 237.368881,265.686340 237.827408,267.686798 
	C234.441238,267.987274 231.474365,268.250549 228.507477,268.513794 
	C228.471573,269.157135 228.435669,269.800446 228.399750,270.443756 
	C230.364883,270.689117 232.401321,270.697876 234.270615,271.261261 
	C235.563721,271.650970 236.626114,272.806213 237.791595,273.619415 
	C236.751038,274.402557 235.817291,275.507080 234.645844,275.896454 
	C232.706924,276.540924 230.614883,276.724701 228.422791,277.710022 
	C230.681107,279.268097 233.104004,280.218719 235.570160,281.186340 
	C234.306168,281.970184 233.155045,282.684052 232.003922,283.397888 
	C231.243652,283.473663 230.483368,283.549408 229.207855,283.189697 
	C227.211090,282.241943 225.729584,281.729645 223.999878,281.131531 
	C223.999878,277.875427 223.990677,274.752197 224.001633,271.629059 
	C224.032242,262.896149 223.419724,264.065399 231.231018,263.958984 
	C232.479935,263.941986 233.722122,263.431458 234.967422,263.149078 
z"/>
<path fill="#9C7F49" opacity="1.000000" stroke="none" 
	d="
M408.972412,310.043396 
	C409.584503,310.557068 410.771515,311.453491 410.722595,311.526978 
	C409.964783,312.665009 409.241486,314.120941 408.113464,314.638458 
	C406.871124,315.208405 405.222809,314.893311 403.032532,314.998230 
	C403.032532,317.534027 403.032532,319.936096 403.032532,322.338135 
	C403.032532,324.777191 403.032532,327.216217 403.032532,329.897858 
	C401.058472,329.897858 399.472046,329.897858 397.127686,329.897858 
	C397.127686,325.992340 397.003448,322.104248 397.172058,318.228851 
	C397.281525,315.712952 396.446533,314.489136 393.434509,314.203369 
	C394.362122,312.803619 395.624512,311.353485 397.083649,311.116913 
	C401.001617,310.481781 405.003723,310.365631 408.972412,310.043396 
z"/>
<path fill="#9C7F49" opacity="1.000000" stroke="none" 
	d="
M197.969513,267.876587 
	C203.887741,261.277740 211.481201,261.039032 215.871292,267.893524 
	C214.168869,268.458679 212.011032,269.891296 211.154602,269.331787 
	C207.929092,267.224609 204.459702,267.366760 202.917206,270.141663 
	C201.759491,272.224365 203.187744,275.744507 203.956268,279.084167 
	C205.298355,279.708008 206.148865,279.872375 206.998871,280.364746 
	C206.995926,281.130127 206.993515,281.567505 206.589600,282.002136 
	C198.702652,281.519409 197.083069,279.225708 196.973923,268.950043 
	C196.973923,268.950043 196.998962,269.000732 197.205933,268.874451 
	C197.598434,268.457642 197.783966,268.167114 197.969513,267.876587 
z"/>
<path fill="#9D7D46" opacity="1.000000" stroke="none" 
	d="
M344.267059,318.507874 
	C345.233734,315.591400 346.050171,313.032074 346.998108,310.060577 
	C348.037018,310.060577 349.648102,310.060577 351.607605,310.060577 
	C351.607605,316.732422 351.607605,323.321411 351.607605,331.877625 
	C349.085510,329.351257 346.961670,327.939758 345.895081,325.958984 
	C344.774780,323.878418 344.667053,321.252594 344.267059,318.507874 
z"/>
<path fill="#9F7D3F" opacity="1.000000" stroke="none" 
	d="
M435.345673,327.005493 
	C435.247650,323.847351 435.404602,320.655579 434.993561,317.538727 
	C434.330261,312.509277 436.180725,310.047760 441.178192,310.317902 
	C441.822662,315.248230 442.464539,320.158478 443.347229,325.532227 
	C442.741638,328.703156 441.415375,330.045258 438.543823,328.080658 
	C437.650635,327.469635 436.421173,327.350067 435.345673,327.005493 
z"/>
<path fill="#A27F43" opacity="1.000000" stroke="none" 
	d="
M535.953247,283.417206 
	C535.953247,283.417206 535.648926,283.790863 535.265381,283.387329 
	C529.082336,278.888947 533.847107,272.291656 531.424316,267.703308 
	C529.475647,266.959564 527.806213,266.322418 526.136780,265.685242 
	C526.206543,265.328827 526.276367,264.972443 526.346130,264.616058 
	C527.227417,264.412079 528.108765,264.208099 529.140442,264.226440 
	C529.866333,264.300934 530.441895,264.153046 531.445251,264.004944 
	C534.256897,264.322662 536.640686,264.640656 538.841492,265.230469 
	C538.122192,266.372253 537.585938,267.242279 537.049683,268.112305 
	C537.017334,272.444000 536.985046,276.775696 536.674438,281.744751 
	C536.248474,282.727142 536.100891,283.072174 535.953247,283.417206 
z"/>
<path fill="#977942" opacity="1.000000" stroke="none" 
	d="
M549.017761,263.168732 
	C550.471313,263.168732 551.924866,263.168732 554.412964,263.168732 
	C553.842102,270.191162 553.291321,276.966003 552.233276,283.304199 
	C550.836182,281.191345 549.307617,279.562714 549.178467,277.829773 
	C548.816040,272.965759 549.030701,268.058777 549.017761,263.168732 
z"/>
<path fill="#A27F43" opacity="1.000000" stroke="none" 
	d="
M386.977692,310.994019 
	C387.216827,317.156067 387.455963,323.318115 387.096130,329.402740 
	C385.333801,327.177368 383.673523,325.144775 383.140839,322.850403 
	C382.557220,320.336700 383.178131,317.568726 382.975311,314.934570 
	C382.738525,311.858582 383.994202,310.633392 386.977692,310.994019 
z"/>
<path fill="#A27F43" opacity="1.000000" stroke="none" 
	d="
M206.991104,282.004883 
	C206.993515,281.567505 206.995926,281.130127 207.370773,280.345581 
	C208.423325,279.228912 209.103439,278.459412 209.783554,277.689941 
	C209.783554,277.689941 209.915405,277.830688 210.179596,277.680115 
	C210.624893,275.400604 210.806015,273.271698 210.987152,271.142761 
	C211.748688,271.089783 212.510223,271.036835 213.818619,271.299744 
	C214.706711,271.827148 215.047943,272.038727 215.389175,272.250275 
	C215.575317,273.349640 215.903564,274.446228 215.924973,275.548767 
	C216.088440,283.966461 216.069809,283.966827 207.391602,283.317749 
	C206.988968,282.607422 206.991989,282.306183 206.991104,282.004883 
z"/>
<path fill="#958155" opacity="1.000000" stroke="none" 
	d="
M335.560242,310.746521 
	C320.578156,310.967804 323.261536,310.148132 323.005920,323.943726 
	C322.958160,326.522003 322.737335,329.142853 326.795929,328.271729 
	C327.260162,328.172089 328.045929,329.570557 328.828125,330.575806 
	C326.564941,330.500793 324.156250,330.124390 321.537994,329.715210 
	C321.537994,323.241089 321.537994,316.832916 321.537994,309.514832 
	C326.236053,309.846130 330.753021,310.164673 335.560242,310.746521 
z"/>
<path fill="#958155" opacity="1.000000" stroke="none" 
	d="
M539.024536,264.958618 
	C536.640686,264.640656 534.256897,264.322662 531.107178,264.000153 
	C529.890930,263.998444 529.440552,264.001282 528.990112,264.004120 
	C528.108765,264.208099 527.227417,264.412079 526.346130,264.616058 
	C526.276367,264.972443 526.206543,265.328827 526.136780,265.685242 
	C527.806213,266.322418 529.475647,266.959564 531.424316,267.703308 
	C533.847107,272.291656 529.082336,278.888947 535.024536,283.391357 
	C531.392090,284.491943 530.043213,282.599609 530.123962,279.115326 
	C530.170166,277.123779 529.923279,275.102020 530.185181,273.144287 
	C530.594849,270.081970 530.781433,267.688538 526.430420,267.728180 
	C525.479980,267.736877 524.507812,265.362152 522.738464,263.013702 
	C529.208252,263.013702 534.143616,263.013702 539.513855,263.350800 
	C539.640686,264.111481 539.332581,264.535065 539.024536,264.958618 
z"/>
<path fill="#9D8757" opacity="1.000000" stroke="none" 
	d="
M234.508301,263.082458 
	C233.722122,263.431458 232.479935,263.941986 231.231018,263.958984 
	C223.419724,264.065399 224.032242,262.896149 224.001633,271.629059 
	C223.990677,274.752197 223.999878,277.875427 223.999878,281.131531 
	C225.729584,281.729645 227.211090,282.241943 228.840958,283.066711 
	C226.893326,283.484894 224.797333,283.590576 221.962128,283.733551 
	C221.962128,279.997467 221.962128,276.752930 221.962128,273.508362 
	C221.962128,270.222351 221.962128,266.936371 221.962128,263.015808 
	C226.216614,263.015808 230.132904,263.015808 234.508301,263.082458 
z"/>
<path fill="#9D8757" opacity="1.000000" stroke="none" 
	d="
M435.234131,327.399719 
	C436.421173,327.350067 437.650635,327.469635 438.543823,328.080658 
	C441.415375,330.045258 442.741638,328.703156 443.751282,325.703796 
	C445.403687,325.345673 447.060089,324.850891 448.330139,325.346466 
	C449.379883,325.756012 449.973053,327.335724 450.768524,328.396973 
	C449.865509,329.003052 448.984070,330.089172 448.055725,330.130859 
	C444.339172,330.297699 440.600983,330.247223 436.889221,330.000092 
	C436.254211,329.957855 435.709167,328.563629 435.234131,327.399719 
z"/>
<path fill="#977942" opacity="1.000000" stroke="none" 
	d="
M566.739868,263.680908 
	C564.175720,263.832306 562.693054,264.259918 563.280396,267.893311 
	C563.841980,271.367493 562.873962,275.065552 563.127869,278.626007 
	C563.212219,279.809418 564.999268,280.871399 566.416443,281.987793 
	C565.350830,282.777039 563.876648,283.567413 561.569092,284.804626 
	C561.569092,276.852264 561.569092,270.197083 561.569092,263.019379 
	C563.343140,263.136475 564.933838,263.241455 566.739868,263.680908 
z"/>
<path fill="#958155" opacity="1.000000" stroke="none" 
	d="
M401.109192,75.573021 
	C399.997742,75.620865 398.846985,75.316986 397.336151,75.021614 
	C395.604126,72.945686 393.926758,70.992264 392.958160,68.734734 
	C392.203308,66.975464 392.330170,64.837868 392.065186,62.868393 
	C392.711639,62.618790 393.358093,62.369186 394.004547,62.119587 
	C396.359650,66.486824 398.714752,70.854057 401.109192,75.573021 
z"/>
<path fill="#A48E5C" opacity="1.000000" stroke="none" 
	d="
M407.546753,263.234314 
	C406.760223,264.255951 405.545013,265.176025 404.663727,265.843262 
	C404.437012,269.417145 404.227875,272.774567 404.009827,276.131378 
	C403.843140,278.697815 403.796173,281.193481 407.467712,281.965240 
	C406.179596,282.870422 404.519226,283.714630 401.726654,285.134491 
	C402.288971,276.933624 402.746643,270.259003 403.235260,263.132751 
	C404.602203,263.132751 405.860107,263.132751 407.546753,263.234314 
z"/>
<path fill="#A48E5C" opacity="1.000000" stroke="none" 
	d="
M434.431335,74.819038 
	C432.984833,75.656624 431.810303,76.271957 430.294983,76.931625 
	C431.348389,73.553391 432.544464,70.029839 434.216522,66.748840 
	C435.116272,64.983337 436.832214,63.633770 438.645416,61.565536 
	C440.236603,65.035545 440.880066,66.826378 438.037231,68.833557 
	C436.390503,69.996239 435.780151,72.626808 434.431335,74.819038 
z"/>
<path fill="#9D8757" opacity="1.000000" stroke="none" 
	d="
M508.545013,263.135071 
	C508.349457,268.640045 507.475067,274.071838 507.328735,279.523132 
	C507.299408,280.616821 509.887848,282.201477 511.544281,282.805420 
	C513.321899,283.453491 515.423889,283.211884 517.674438,283.619629 
	C514.197205,283.880737 510.429779,283.880737 505.988953,283.880737 
	C505.988953,277.195221 505.921692,271.124176 506.082764,265.059204 
	C506.100830,264.378143 507.411285,263.731384 508.545013,263.135071 
z"/>
<path fill="#745C3B" opacity="1.000000" stroke="none" 
	d="
M297.927246,263.169678 
	C298.627808,263.973267 299.905151,264.756287 299.934692,265.583801 
	C300.116760,270.686768 299.908325,275.802887 300.054321,280.908203 
	C300.136597,283.786377 298.789642,284.318085 296.347839,283.459595 
	C296.852386,282.763062 297.407562,282.394073 297.981567,281.555359 
	C297.970581,275.709991 297.940735,270.334442 297.930725,264.660950 
	C297.942810,263.965271 297.935028,263.567474 297.927246,263.169678 
z"/>
<path fill="#A48E5C" opacity="1.000000" stroke="none" 
	d="
M297.962708,282.025116 
	C297.407562,282.394073 296.852386,282.763062 295.984467,283.291809 
	C295.671692,283.451630 295.213165,283.383850 295.068420,282.880829 
	C294.722656,280.911133 294.521637,279.444489 294.320648,277.977814 
	C294.304443,273.874634 294.110016,269.758545 294.406494,265.678070 
	C294.474487,264.742798 296.232147,263.930267 297.569702,263.115479 
	C297.935028,263.567474 297.942810,263.965271 297.547302,264.774475 
	C296.965576,270.606537 296.773712,276.026917 296.666473,281.448944 
	C296.662842,281.632416 297.511383,281.832672 297.962708,282.025116 
z"/>
<path fill="#9D8757" opacity="1.000000" stroke="none" 
	d="
M206.589600,282.002136 
	C206.991989,282.306183 206.988968,282.607422 206.985260,283.133026 
	C206.487274,283.431549 205.986038,283.505707 204.848434,283.341644 
	C203.206497,283.062195 202.200958,283.020935 201.195404,282.979675 
	C195.432526,280.019409 193.559662,274.797882 196.634155,269.132874 
	C197.083069,279.225708 198.702652,281.519409 206.589600,282.002136 
z"/>
<path fill="#9D8757" opacity="1.000000" stroke="none" 
	d="
M232.400650,283.532196 
	C233.155045,282.684052 234.306168,281.970184 235.570160,281.186340 
	C233.104004,280.218719 230.681107,279.268097 228.161163,278.129639 
	C231.172409,278.287659 234.280731,278.633484 237.597687,279.002533 
	C237.597687,280.380890 237.597687,281.661041 237.597687,283.666504 
	C235.951523,283.666504 234.374451,283.666504 232.400650,283.532196 
z"/>
<path fill="#A48E5C" opacity="1.000000" stroke="none" 
	d="
M210.570312,271.089508 
	C210.806015,273.271698 210.624893,275.400604 210.099823,277.734283 
	C209.261703,277.300995 208.855835,276.558777 208.253601,276.048279 
	C207.237671,275.187134 206.097290,274.472839 205.009232,273.696808 
	C206.240417,272.797943 207.439346,271.848083 208.724518,271.034515 
	C209.064301,270.819427 209.669922,271.024261 210.570312,271.089508 
z"/>
<path fill="#A48E5C" opacity="1.000000" stroke="none" 
	d="
M386.803650,310.611450 
	C383.994202,310.633392 382.738525,311.858582 382.975311,314.934570 
	C383.178131,317.568726 382.557220,320.336700 383.140839,322.850403 
	C383.673523,325.144775 385.333801,327.177368 386.718872,329.591370 
	C385.470245,329.940582 383.999908,330.023682 382.181458,330.126495 
	C382.181458,323.352020 382.181458,316.832733 382.181458,309.843658 
	C383.791046,309.983032 385.210358,310.105957 386.803650,310.611450 
z"/>
<path fill="#958155" opacity="1.000000" stroke="none" 
	d="
M388.662048,80.790810 
	C387.920349,81.801788 386.959290,82.567329 385.976990,83.701836 
	C383.948212,81.705971 381.883301,79.386047 379.972931,76.945160 
	C379.487579,76.324974 379.493683,75.320137 379.273956,74.492058 
	C380.210632,74.692963 381.353668,74.621147 382.045898,75.145042 
	C384.267853,76.826660 386.323120,78.728508 388.662048,80.790810 
z"/>
<path fill="#A48E5C" opacity="1.000000" stroke="none" 
	d="
M548.641235,263.283020 
	C549.030701,268.058777 548.816040,272.965759 549.178467,277.829773 
	C549.307617,279.562714 550.836182,281.191345 551.827637,283.198547 
	C549.019897,284.073547 547.633545,283.159546 547.816284,279.913147 
	C548.125610,274.416870 548.131409,268.903503 548.641235,263.283020 
z"/>
<path fill="#A48E5C" opacity="1.000000" stroke="none" 
	d="
M439.621796,265.074890 
	C439.524872,269.730103 438.316315,274.206451 434.138062,277.197327 
	C435.723358,273.042358 437.519989,269.148193 439.621796,265.074890 
z"/>
<path fill="#9D8757" opacity="1.000000" stroke="none" 
	d="
M538.841431,265.230438 
	C539.332581,264.535065 539.640686,264.111481 539.977905,263.413269 
	C541.326721,263.818146 542.646423,264.497650 543.966187,265.177155 
	C542.757629,266.134766 541.627563,267.228607 540.305725,267.989502 
	C539.693726,268.341797 538.708069,268.045166 537.470764,268.077515 
	C537.585938,267.242279 538.122192,266.372253 538.841431,265.230438 
z"/>
<path fill="#9D8757" opacity="1.000000" stroke="none" 
	d="
M408.514587,309.953003 
	C405.003723,310.365631 401.001617,310.481781 397.083649,311.116913 
	C395.624512,311.353485 394.362122,312.803619 393.003601,314.082397 
	C392.168243,313.115112 391.339294,311.765808 390.170044,309.862579 
	C396.861389,309.862579 402.459106,309.862579 408.514587,309.953003 
z"/>
<path fill="#A48E5C" opacity="1.000000" stroke="none" 
	d="
M403.135406,99.392303 
	C411.305939,99.032845 419.743500,99.018456 428.658997,99.022629 
	C425.982574,99.369713 422.831818,99.925659 419.672974,99.976166 
	C414.252106,100.062836 408.826202,99.833847 403.135406,99.392303 
z"/>
<path fill="#977942" opacity="1.000000" stroke="none" 
	d="
M185.654938,270.666931 
	C183.868286,269.880005 182.049545,268.739716 180.054291,267.488739 
	C181.130005,266.153229 181.990524,265.084869 182.908981,263.706696 
	C183.852234,265.702423 184.737549,268.008026 185.654938,270.666931 
z"/>
<path fill="#9D8757" opacity="1.000000" stroke="none" 
	d="
M518.519165,263.101074 
	C516.188049,263.341278 513.415833,263.509430 510.346680,263.432709 
	C512.725891,263.134888 515.401978,263.081940 518.519165,263.101074 
z"/>
<path fill="#A48E5C" opacity="1.000000" stroke="none" 
	d="
M209.505310,277.677063 
	C209.103439,278.459412 208.423325,279.228912 207.371307,280.017578 
	C206.148865,279.872375 205.298355,279.708008 204.249329,279.283752 
	C205.776245,278.570618 207.501663,278.117401 209.505310,277.677063 
z"/>
<path fill="#A48E5C" opacity="1.000000" stroke="none" 
	d="
M595.628357,263.118896 
	C594.554749,263.782043 593.122803,264.389069 591.296265,264.963806 
	C592.357788,264.308563 593.813904,263.685638 595.628357,263.118896 
z"/>
<path fill="#958155" opacity="1.000000" stroke="none" 
	d="
M386.565552,85.390022 
	C387.113190,86.612076 387.511261,88.180397 387.868347,90.160172 
	C387.356903,88.959854 386.886414,87.348068 386.565552,85.390022 
z"/>
<path fill="#977942" opacity="1.000000" stroke="none" 
	d="
M188.060287,276.607910 
	C187.384064,275.527069 186.691391,274.087769 186.028061,272.265869 
	C186.719543,273.338654 187.381699,274.794037 188.060287,276.607910 
z"/>
<path fill="#A48E5C" opacity="1.000000" stroke="none" 
	d="
M586.609741,270.770477 
	C586.934753,272.062866 586.961487,273.621063 586.952393,275.643616 
	C586.714844,274.417389 586.513123,272.726837 586.609741,270.770477 
z"/>
<path fill="#958155" opacity="1.000000" stroke="none" 
	d="
M391.799316,81.840584 
	C391.734222,82.460167 391.467773,82.896866 391.201294,83.333549 
	C390.832611,82.896584 390.463928,82.459618 390.051208,81.761459 
	C390.537476,81.552742 391.067688,81.605217 391.799316,81.840584 
z"/>
<path fill="#745C3B" opacity="1.000000" stroke="none" 
	d="
M294.204803,278.355652 
	C294.521637,279.444489 294.722656,280.911133 294.867218,282.765808 
	C294.570190,281.680359 294.329559,280.206940 294.204803,278.355652 
z"/>
<path fill="#A27F43" opacity="1.000000" stroke="none" 
	d="
M201.392090,283.234070 
	C202.200958,283.020935 203.206497,283.062195 204.482819,283.220947 
	C203.698654,283.388458 202.643707,283.438477 201.392090,283.234070 
z"/>
<path fill="#A48E5C" opacity="1.000000" stroke="none" 
	d="
M587.856140,279.482727 
	C588.543030,279.637024 589.290344,280.154358 590.101990,281.059937 
	C589.416382,280.914062 588.666504,280.379913 587.856140,279.482727 
z"/>
<path fill="#A48E5C" opacity="1.000000" stroke="none" 
	d="
M429.688110,77.068878 
	C429.190033,77.617958 428.404388,78.282280 427.252747,78.934036 
	C427.724701,78.342346 428.562653,77.763229 429.688110,77.068878 
z"/>
<path fill="#A48E5C" opacity="1.000000" stroke="none" 
	d="
M586.798340,276.381897 
	C587.194763,276.818237 587.578308,277.605682 587.935425,278.755035 
	C587.534485,278.322327 587.159973,277.527679 586.798340,276.381897 
z"/>
<path fill="#958155" opacity="1.000000" stroke="none" 
	d="
M403.722137,78.728462 
	C403.304779,78.545059 402.782043,78.096535 402.123779,77.426018 
	C402.531097,77.623802 403.073914,78.043571 403.722137,78.728462 
z"/>
<path fill="#958155" opacity="1.000000" stroke="none" 
	d="
M331.351807,330.907196 
	C331.572327,330.715729 332.112701,330.578308 332.804413,330.633453 
	C332.527679,330.871094 332.099670,330.916168 331.351807,330.907196 
z"/>
<path fill="#A48E5C" opacity="1.000000" stroke="none" 
	d="
M587.618774,267.819550 
	C587.754028,268.275940 587.617371,268.954285 587.191345,269.839661 
	C587.050293,269.378296 587.198608,268.709869 587.618774,267.819550 
z"/>
<path fill="#A48E5C" opacity="1.000000" stroke="none" 
	d="
M440.698486,263.212738 
	C440.803589,263.692719 440.608917,264.219788 440.144409,264.858643 
	C440.049286,264.400238 440.223999,263.830017 440.698486,263.212738 
z"/>
<path fill="#A48E5C" opacity="1.000000" stroke="none" 
	d="
M426.627441,78.831085 
	C426.439423,79.095497 425.922028,79.337921 425.235718,79.384003 
	C425.477234,79.061485 425.887665,78.935295 426.627441,78.831085 
z"/>
<path fill="#958155" opacity="1.000000" stroke="none" 
	d="
M536.263306,283.330688 
	C536.100891,283.072174 536.248474,282.727142 536.617188,282.207306 
	C536.750061,282.436401 536.661743,282.840302 536.263306,283.330688 
z"/>
<path fill="#977942" opacity="1.000000" stroke="none" 
	d="
M188.713776,277.801575 
	C188.478729,277.878815 188.275146,277.659363 188.094849,277.149200 
	C188.365936,277.033264 188.574982,277.248718 188.713776,277.801575 
z"/>
<path fill="#A48E5C" opacity="1.000000" stroke="none" 
	d="
M215.365051,271.891724 
	C215.047943,272.038727 214.706711,271.827148 214.195923,271.368561 
	C214.464569,271.258728 214.902756,271.395966 215.365051,271.891724 
z"/>
<path fill="#9D8757" opacity="1.000000" stroke="none" 
	d="
M197.738770,268.000793 
	C197.783966,268.167114 197.598434,268.457642 197.178604,268.867279 
	C197.132217,268.699280 197.320129,268.412170 197.738770,268.000793 
z"/>
<path fill="#A48E5C" opacity="1.000000" stroke="none" 
	d="
M589.657227,265.944427 
	C589.692017,266.199921 589.414368,266.495789 588.828247,266.859497 
	C588.794861,266.613190 589.069824,266.298981 589.657227,265.944427 
z"/>
<path fill="#A48E5C" opacity="1.000000" stroke="none" 
	d="
M590.693970,264.963318 
	C590.768555,265.186401 590.568542,265.479614 590.105103,265.848938 
	C590.034302,265.627838 590.226868,265.330627 590.693970,264.963318 
z"/>
<path fill="#958155" opacity="1.000000" stroke="none" 
	d="
M401.760010,76.784317 
	C401.535919,76.852303 401.327332,76.628227 401.131653,76.111229 
	C401.349091,76.048019 401.559418,76.272675 401.760010,76.784317 
z"/>
<path fill="#A27F45" opacity="1.000000" stroke="none" 
	d="
M421.079529,263.951447 
	C421.096222,263.946594 420.947754,264.029236 420.995392,263.997742 
	C421.043030,263.966217 421.062866,263.956299 421.079529,263.951447 
z"/>
<path fill="#A48E5C" opacity="1.000000" stroke="none" 
	d="
M422.751282,79.028236 
	C422.680115,79.171021 422.404938,79.162552 422.088562,78.970886 
	C422.213928,78.817459 422.380585,78.847229 422.751282,79.028236 
z"/>
<path fill="#010101" opacity="1.000000" stroke="none" 
	d="
M346.869812,126.182037 
	C347.460602,147.503403 345.680695,168.071655 338.948517,187.930832 
	C335.168793,199.080612 330.757568,209.990616 321.494568,218.041946 
	C316.943970,221.997269 313.003448,226.949738 307.892975,229.905396 
	C296.583038,236.446472 284.278168,241.068542 271.263306,242.702118 
	C260.501801,244.052856 249.585678,244.568832 238.731735,244.654694 
	C230.697327,244.718277 222.652756,243.496628 214.070190,242.803726 
	C214.070190,169.083481 214.070190,95.438545 214.070190,20.313766 
	C229.922226,21.431847 245.619888,21.764931 261.069855,23.894758 
	C271.772614,25.370169 282.720673,28.030519 292.508209,32.475483 
	C306.636444,38.891788 318.239502,48.942188 327.422089,62.001743 
	C335.778778,73.886635 340.105896,86.998741 342.940155,100.826996 
	C344.623932,109.042114 345.584015,117.405556 346.869812,126.182037 
z"/>
<path fill="#0D0E0E" opacity="1.000000" stroke="none" 
	d="
M555.250000,144.616638 
	C556.773071,141.232712 558.087219,138.141541 559.401306,135.050369 
	C559.794495,135.057053 560.187622,135.063721 560.580811,135.070404 
	C560.580811,149.821869 560.580811,164.573349 560.580811,179.547989 
	C554.021790,179.547989 546.951416,179.547989 539.844971,179.547989 
	C544.881531,168.067551 549.961304,156.488480 555.250000,144.616638 
z"/>
<path fill="#977942" opacity="1.000000" stroke="none" 
	d="
M409.744324,90.543625 
	C415.086365,89.665535 420.656097,89.104477 426.225861,88.543419 
	C426.272369,89.291885 426.318878,90.040352 426.365387,90.788818 
	C421.027710,92.681419 415.564331,92.720894 409.744324,90.543625 
z"/>
<path fill="#010100" opacity="1.000000" stroke="none" 
	d="
M489.476501,267.422363 
	C489.233643,268.041840 488.809296,268.479370 488.384949,268.916931 
	C488.361816,268.355011 488.338684,267.793060 488.606445,267.072876 
	C489.029907,267.023193 489.162445,267.131775 489.476501,267.422363 
z"/>
<path fill="#060301" opacity="1.000000" stroke="none" 
	d="
M353.301086,268.136230 
	C356.679504,269.868896 357.507416,272.541382 355.957367,275.292664 
	C355.102295,276.810425 352.911987,277.575958 351.323608,278.680603 
	C350.523468,277.167847 349.392792,275.732910 349.013550,274.121155 
	C348.611450,272.412262 348.923187,270.535339 348.923187,268.356995 
	C350.416992,268.246765 351.656921,268.155273 353.301086,268.136230 
z"/>
<path fill="#060301" opacity="1.000000" stroke="none" 
	d="
M600.411377,268.171997 
	C601.659973,268.746338 602.537659,269.214447 603.186218,269.560364 
	C600.671631,271.072052 599.013306,272.068970 597.355042,273.065857 
	C598.320740,274.427368 599.286499,275.788818 600.513977,277.519257 
	C598.361145,280.042328 595.910034,278.528839 593.901733,276.651581 
	C591.588135,274.489014 591.595398,271.745422 594.237244,269.907867 
	C595.828735,268.800873 598.083618,268.647583 600.411377,268.171997 
z"/>
<path fill="#060301" opacity="1.000000" stroke="none" 
	d="
M333.266144,315.500244 
	C334.259644,318.566437 334.918762,321.347534 335.723450,324.742676 
	C332.408966,324.742676 330.050720,324.742676 327.127808,324.742676 
	C327.456665,321.569977 327.770935,318.538055 328.149048,314.889923 
	C329.837646,315.004730 331.384705,315.109955 333.266144,315.500244 
z"/>
<path fill="#9D8757" opacity="1.000000" stroke="none" 
	d="
M529.140442,264.226440 
	C529.440552,264.001282 529.890930,263.998444 530.679443,264.000366 
	C530.441895,264.153046 529.866333,264.300934 529.140442,264.226440 
z"/>
<path fill="#A58449" opacity="1.000000" stroke="none" 
	d="
M297.981567,281.555359 
	C297.511383,281.832672 296.662842,281.632416 296.666473,281.448944 
	C296.773712,276.026917 296.965576,270.606537 297.527466,265.072388 
	C297.940735,270.334442 297.970581,275.709991 297.981567,281.555359 
z"/>
</svg>